<svg width="57" height="56" viewBox="0 0 57 56" fill="none" xmlns="http://www.w3.org/2000/svg">
<path d="M41.9352 21.6543C41.935 21.1363 41.8236 20.6786 41.5984 20.2859C41.3771 19.8995 41.0457 19.5757 40.6012 19.3198C36.932 17.2158 33.2592 15.1183 29.5912 13.0122C28.6023 12.4445 27.6435 12.4653 26.6619 13.0412C25.2015 13.8976 17.8895 18.0636 15.7106 19.3186C14.8133 19.8353 14.3766 20.6258 14.3764 21.6533C14.375 25.8844 14.3764 30.1156 14.375 34.3467C14.375 34.8533 14.4819 35.3022 14.6972 35.6891C14.9186 36.087 15.2546 36.4197 15.7094 36.6815C17.8884 37.9365 25.2014 42.1021 26.6615 42.9588C27.6435 43.535 28.6023 43.5556 29.5915 42.9878C33.2596 40.8816 36.9326 38.7841 40.6024 36.6802C41.0571 36.4185 41.3931 36.0856 41.6145 35.688C41.8296 35.3011 41.9366 34.8523 41.9366 34.3456C41.9366 34.3456 41.9366 25.8855 41.9352 21.6543Z" fill="#A179DC"/>
<path d="M28.1961 27.9587L14.6953 35.689C14.9167 36.087 15.2527 36.4196 15.7075 36.6814C17.8865 37.9364 25.1995 42.1021 26.6596 42.9588C27.6416 43.535 28.6004 43.5556 29.5896 42.9877C33.2577 40.8816 36.9307 38.7841 40.6004 36.6801C41.0552 36.4185 41.3912 36.0856 41.6126 35.6879L28.1961 27.9587Z" fill="#280068"/>
<path d="M41.9365 21.6543C41.9363 21.1363 41.8249 20.6786 41.5996 20.2859L28.1992 27.9589L41.6158 35.688C41.8308 35.3011 41.9377 34.8523 41.9379 34.3456C41.9379 34.3456 41.9379 25.8855 41.9365 21.6543" fill="#390091"/>
<path d="M36.1482 25.0691V26.514H37.6012V25.0691H38.3277V26.514H39.7807V27.2365H38.3277V28.6813H39.7807V29.4038H38.3277V30.8488H37.6012V29.4038H36.1482V30.8488H35.4217V29.4038H33.9688V28.6813H35.4217V27.2365H33.9688V26.514H35.4217V25.0691H36.1482ZM37.6012 27.2364H36.1482V28.6813H37.6012V27.2364Z" fill="white"/>
<path d="M28.2292 17.8124C32.0191 17.8124 35.3279 19.8591 37.1002 22.9015L37.0829 22.8723L32.6238 25.4254C31.7454 23.9463 30.1349 22.948 28.2873 22.9274L28.2291 22.9271C25.4118 22.9271 23.1277 25.1984 23.1277 28C23.1268 28.8831 23.3588 29.7509 23.8006 30.517C24.6799 32.0435 26.3329 33.0731 28.2292 33.0731C30.1372 33.0731 31.7996 32.0304 32.6744 30.4876L32.6531 30.5246L37.1055 33.0895C35.3526 36.1062 32.089 38.1466 28.3433 38.1873L28.2292 38.1879C24.4273 38.1879 21.1091 36.1285 19.3412 33.07C18.4782 31.5769 17.9844 29.846 17.9844 28C17.9844 22.3736 22.571 17.8123 28.2291 17.8123L28.2292 17.8124Z" fill="white"/>
</svg>
