<svg width="57" height="56" viewBox="0 0 57 56" fill="none" xmlns="http://www.w3.org/2000/svg">
<path d="M24.2227 19.1313C20.1344 18.3908 16.9018 19.166 15.6135 21.3848C14.6521 23.0405 14.9266 25.2361 16.2795 27.5829C16.3069 27.6305 16.3434 27.6722 16.387 27.7057C16.4306 27.7392 16.4804 27.7638 16.5336 27.7781C16.5868 27.7925 16.6422 27.7963 16.6969 27.7893C16.7515 27.7823 16.8042 27.7646 16.852 27.7374C16.9485 27.6823 17.0191 27.5914 17.0482 27.4847C17.0773 27.3779 17.0626 27.264 17.0073 27.168C15.7884 25.0542 15.5509 23.1594 16.3397 21.8017C17.4098 19.9584 20.2928 19.267 24.0722 19.9516C24.1405 19.9651 24.2111 19.9614 24.2777 19.9409C24.3442 19.9204 24.4045 19.8838 24.4533 19.8343C24.502 19.7848 24.5375 19.724 24.5567 19.6574C24.576 19.5909 24.5782 19.5206 24.5632 19.453C24.5452 19.3716 24.5031 19.2975 24.4423 19.2402C24.3816 19.1829 24.305 19.145 24.2223 19.1313L24.2227 19.1313ZM18.4056 30.4353C20.0585 32.2419 22.2063 33.9364 24.6556 35.3428C30.5859 38.7477 36.8994 39.6578 40.0108 37.5479C40.1004 37.4847 40.1615 37.3891 40.1809 37.2816C40.2004 37.174 40.1766 37.0632 40.1147 36.9729C40.0529 36.8827 39.9578 36.8202 39.8501 36.7988C39.7423 36.7775 39.6305 36.7991 39.5386 36.8589C36.7537 38.7473 30.7564 37.8827 25.0749 34.6206C22.6985 33.2561 20.619 31.6155 19.0259 29.8743C18.9705 29.8118 18.8975 29.7672 18.8164 29.7463C18.7353 29.7254 18.6498 29.7291 18.5708 29.7569C18.5052 29.7801 18.4464 29.8192 18.3997 29.8706C18.3531 29.9221 18.3201 29.9843 18.3037 30.0516C18.2873 30.119 18.288 30.1893 18.3058 30.2563C18.3236 30.3232 18.3579 30.3848 18.4056 30.4353V30.4353Z" fill="#2DD0ED"/>
<path d="M39.0175 29.9281C41.6943 26.7833 42.6292 23.6202 41.3436 21.4058C40.3976 19.7764 38.3976 18.9162 35.7399 18.8819C35.6288 18.8805 35.5216 18.923 35.4419 19.0001C35.3622 19.0772 35.3166 19.1826 35.315 19.2932C35.3138 19.3757 35.3373 19.4567 35.3824 19.5259C35.4276 19.5951 35.4924 19.6494 35.5687 19.6818C35.6193 19.7035 35.6737 19.715 35.7288 19.7157C38.1191 19.7465 39.8423 20.4877 40.6175 21.8228C41.6851 23.6621 40.8518 26.4828 38.3775 29.3895C38.3407 29.4311 38.3126 29.4796 38.2948 29.5321C38.277 29.5846 38.27 29.6402 38.2741 29.6955C38.2782 29.7507 38.2933 29.8046 38.3186 29.854C38.3439 29.9034 38.3789 29.9473 38.4215 29.983C38.4641 30.0188 38.5134 30.0457 38.5665 30.0623C38.6197 30.0789 38.6756 30.0848 38.7311 30.0797C38.7865 30.0746 38.8404 30.0585 38.8896 30.0325C38.9387 30.0065 38.9822 29.971 39.0175 29.9281V29.9281ZM32.1378 19.2701C29.7173 19.7859 27.1412 20.7942 24.6673 22.2146C18.5448 25.7296 14.5511 30.9123 15.106 34.6708C15.1129 34.7258 15.1308 34.779 15.1587 34.8271C15.1865 34.8753 15.2237 34.9174 15.2682 34.951C15.3126 34.9846 15.3633 35.0091 15.4174 35.0229C15.4715 35.0368 15.5278 35.0398 15.583 35.0317C15.6382 35.0236 15.6913 35.0046 15.7391 34.9759C15.7868 34.9472 15.8283 34.9092 15.8612 34.8643C15.894 34.8194 15.9175 34.7684 15.9302 34.7143C15.9429 34.6603 15.9447 34.6042 15.9353 34.5495C15.4431 31.2128 19.2285 26.2997 25.0862 22.9367C27.4862 21.5587 29.9809 20.5827 32.3136 20.0852C32.419 20.0588 32.51 19.9928 32.5675 19.901C32.6249 19.8093 32.6442 19.6989 32.6214 19.5932C32.5987 19.4875 32.5355 19.3948 32.4453 19.3345C32.3551 19.2742 32.2448 19.2511 32.1378 19.2701Z" fill="#2DD0ED"/>
<path d="M22.2193 37.2763C23.6195 41.1625 25.9089 43.5556 28.4839 43.5556C30.3615 43.5556 32.0988 42.2828 33.4537 40.0417C33.484 39.9948 33.5046 39.9422 33.5142 39.8872C33.5238 39.8322 33.5222 39.7759 33.5095 39.7215C33.4937 39.6534 33.4608 39.5903 33.414 39.5381C33.3672 39.4859 33.3079 39.4463 33.2416 39.4229C33.1754 39.3995 33.1042 39.393 33.0348 39.4041C32.9654 39.4152 32.8999 39.4435 32.8443 39.4864C32.7999 39.5206 32.763 39.5633 32.7355 39.612C31.5178 41.6261 30.0221 42.7221 28.4839 42.7221C26.3454 42.7221 24.3029 40.5875 23.009 36.9951C22.9912 36.9425 22.9631 36.8939 22.9262 36.8522C22.8894 36.8105 22.8446 36.7765 22.7944 36.7522C22.7442 36.728 22.6896 36.714 22.6339 36.711C22.5782 36.7081 22.5225 36.7162 22.47 36.735C22.4175 36.7537 22.3692 36.7827 22.3281 36.8202C22.287 36.8577 22.2538 36.903 22.2305 36.9534C22.2072 37.0038 22.1942 37.0583 22.1923 37.1137C22.1905 37.1692 22.1998 37.2245 22.2197 37.2763H22.2193ZM35.0044 36.5158C35.7289 34.2138 36.1177 31.5573 36.1177 28.7892C36.1177 21.8827 33.6872 15.9287 30.2247 14.3998C30.1235 14.3575 30.0097 14.3563 29.9076 14.3965C29.8056 14.4367 29.7234 14.5152 29.6789 14.6149C29.6343 14.7147 29.6309 14.8279 29.6694 14.9302C29.7078 15.0324 29.785 15.1156 29.8845 15.1619C32.9726 16.5256 35.2796 22.176 35.2796 28.7892C35.2796 31.4743 34.9025 34.047 34.2044 36.267C34.1863 36.3196 34.179 36.3753 34.183 36.4308C34.1869 36.4863 34.202 36.5404 34.2274 36.59C34.2655 36.6647 34.3254 36.7262 34.3992 36.7665C34.4731 36.8069 34.5574 36.8242 34.6413 36.8162C34.7251 36.8082 34.8046 36.7753 34.8694 36.7217C34.9341 36.6681 34.9812 36.5964 35.0044 36.5158V36.5158ZM42.8998 36.1077C42.9015 35.8446 42.8508 35.5838 42.7508 35.3402C42.6507 35.0967 42.5032 34.8752 42.3167 34.6886C42.1302 34.5019 41.9084 34.3538 41.6642 34.2527C41.4199 34.1517 41.1579 34.0996 40.8933 34.0996C40.6288 34.0997 40.3668 34.1517 40.1225 34.2528C39.8783 34.3539 39.6565 34.502 39.47 34.6886C39.2836 34.8753 39.136 35.0967 39.036 35.3403C38.9359 35.5838 38.8853 35.8447 38.887 36.1078C38.8904 36.6347 39.1033 37.139 39.4792 37.5104C39.8551 37.8818 40.3635 38.0903 40.8934 38.0903C41.4234 38.0903 41.9318 37.8818 42.3077 37.5104C42.6836 37.1389 42.8964 36.6347 42.8998 36.1077ZM42.0613 36.1077C42.0612 36.4157 41.9381 36.7111 41.7191 36.9289C41.5001 37.1467 41.2031 37.2691 40.8933 37.2691C40.6624 37.2691 40.4366 37.201 40.2445 37.0734C40.0525 36.9458 39.9028 36.7644 39.8145 36.5522C39.7261 36.34 39.703 36.1065 39.748 35.8812C39.7931 35.6559 39.9043 35.449 40.0676 35.2866C40.231 35.1241 40.439 35.0135 40.6656 34.9687C40.8921 34.9239 41.1269 34.9469 41.3403 35.0348C41.5537 35.1227 41.7361 35.2715 41.8644 35.4625C41.9928 35.6535 42.0613 35.878 42.0613 36.1077V36.1077ZM16.0455 38.103C16.309 38.103 16.57 38.0515 16.8134 37.9512C17.0569 37.8509 17.2781 37.704 17.4644 37.5187C17.6507 37.3334 17.7985 37.1134 17.8993 36.8713C18.0001 36.6292 18.052 36.3697 18.052 36.1077C18.052 35.8457 18.0001 35.5862 17.8993 35.3441C17.7985 35.102 17.6507 34.882 17.4643 34.6967C17.278 34.5114 17.0568 34.3645 16.8133 34.2642C16.5699 34.1639 16.309 34.1123 16.0454 34.1124C15.782 34.1124 15.521 34.164 15.2776 34.2642C15.0342 34.3645 14.813 34.5115 14.6267 34.6968C14.4404 34.8821 14.2926 35.102 14.1917 35.3441C14.0909 35.5862 14.039 35.8457 14.0391 36.1077C14.039 36.3697 14.0909 36.6292 14.1918 36.8713C14.2926 37.1134 14.4404 37.3334 14.6267 37.5186C14.813 37.7039 15.0342 37.8509 15.2777 37.9512C15.5211 38.0514 15.782 38.103 16.0455 38.103V38.103ZM16.0455 37.2691C15.7357 37.2691 15.4386 37.1468 15.2195 36.9289C15.0004 36.711 14.8773 36.4156 14.8773 36.1075C14.8773 35.7993 15.0004 35.5039 15.2195 35.286C15.4386 35.0681 15.7357 34.9458 16.0455 34.9458C16.3553 34.9458 16.6525 35.0681 16.8716 35.286C17.0906 35.5039 17.2137 35.7993 17.2137 36.1075C17.2137 36.4156 17.0906 36.711 16.8716 36.9289C16.6525 37.1468 16.3553 37.2691 16.0455 37.2691V37.2691Z" fill="#2DD0ED"/>
<path d="M28.4832 16.435C28.8801 16.435 29.268 16.318 29.598 16.0987C29.9279 15.8795 30.1851 15.5678 30.3369 15.2032C30.4631 14.9 30.5122 14.5706 30.4798 14.2441C30.4474 13.9176 30.3346 13.604 30.1513 13.3312C29.968 13.0584 29.7199 12.8348 29.4289 12.6801C29.138 12.5254 28.8131 12.4444 28.4832 12.4443C28.0863 12.4443 27.6984 12.5612 27.3684 12.7805C27.0384 12.9997 26.7812 13.3113 26.6293 13.676C26.4774 14.0406 26.4377 14.4418 26.5151 14.8289C26.5926 15.2159 26.7837 15.5715 27.0644 15.8505C27.2507 16.0358 27.4719 16.1827 27.7154 16.283C27.9588 16.3833 28.2197 16.4349 28.4832 16.4349V16.435ZM28.4832 15.601C28.2522 15.601 28.0264 15.5329 27.8344 15.4053C27.6423 15.2776 27.4926 15.0963 27.4042 14.8841C27.3454 14.7432 27.3152 14.5921 27.3152 14.4396C27.3152 14.2871 27.3454 14.136 27.4042 13.9951C27.4628 13.8542 27.5489 13.7262 27.6573 13.6183C27.7657 13.5105 27.8945 13.425 28.0362 13.3666C28.1958 13.3009 28.368 13.2712 28.5405 13.2796C28.713 13.288 28.8815 13.3344 29.0339 13.4154C29.1862 13.4963 29.3185 13.6099 29.4214 13.7479C29.5243 13.8858 29.5952 14.0447 29.6289 14.2132C29.6626 14.3817 29.6583 14.5555 29.6163 14.7221C29.5743 14.8887 29.4957 15.044 29.3862 15.1767C29.2766 15.3095 29.1388 15.4165 28.9826 15.4899C28.8265 15.5633 28.6559 15.6014 28.4832 15.6014V15.601ZM28.7897 30.2006C28.4133 30.2814 28.02 30.2102 27.6964 30.0028C27.4549 29.848 27.2651 29.6256 27.1508 29.3636C27.0366 29.1015 27.003 28.8117 27.0544 28.5307C27.1059 28.2497 27.2399 27.9902 27.4397 27.7849C27.6394 27.5797 27.8959 27.438 28.1766 27.3778C28.5505 27.3035 28.9387 27.3784 29.2575 27.5862C29.5763 27.7941 29.8001 28.1183 29.8806 28.4888C29.9611 28.8594 29.8917 29.2465 29.6876 29.5667C29.4835 29.8869 29.161 30.1144 28.7897 30.2002V30.2006Z" fill="#2DD0ED"/>
</svg>
