<svg width="57" height="56" viewBox="0 0 57 56" fill="none" xmlns="http://www.w3.org/2000/svg">
<path d="M43.8005 12.4443H12.5156V43.5554H43.8005V12.4443Z" fill="#F7DF1E"/>
<path d="M33.5321 36.7499C34.1622 37.7731 34.9821 38.5252 36.4321 38.5252C37.6502 38.5252 38.4284 37.9198 38.4284 37.0832C38.4284 36.0808 37.6289 35.7257 36.2881 35.1425L35.5532 34.8289C33.4317 33.9302 32.0224 32.8042 32.0224 30.424C32.0224 28.2314 33.7024 26.5623 36.3278 26.5623C38.197 26.5623 39.5407 27.2092 40.5091 28.903L38.2198 30.3647C37.7158 29.466 37.172 29.1119 36.3278 29.1119C35.4668 29.1119 34.921 29.6551 34.921 30.3647C34.921 31.2418 35.4673 31.5968 36.7286 32.14L37.4635 32.4531C39.9614 33.5183 41.3717 34.6042 41.3717 37.0457C41.3717 39.6778 39.2925 41.1198 36.5002 41.1198C33.7699 41.1198 32.006 39.826 31.143 38.1302L33.5321 36.7499ZM23.147 37.0032C23.6088 37.8181 24.0289 38.5069 25.0389 38.5069C26.0048 38.5069 26.6141 38.1311 26.6141 36.6699V26.7292H29.5539V36.7094C29.5539 39.7366 27.7692 41.1144 25.1641 41.1144C22.8103 41.1144 21.4471 39.903 20.7539 38.444L23.147 37.0032Z" fill="black"/>
</svg>
