<svg width="56" height="56" viewBox="0 0 56 56" fill="none" xmlns="http://www.w3.org/2000/svg">
<path d="M26.725 12.7762C27.4964 12.3347 28.5012 12.3327 29.2719 12.7762C33.1495 14.9673 37.0283 17.1549 40.9052 19.3472C41.6344 19.758 42.1221 20.5695 42.1147 21.4097V34.5918C42.1201 35.4668 41.5842 36.2977 40.8149 36.6991C36.9501 38.8781 33.0872 41.0597 29.2231 43.2386C28.4357 43.6888 27.4108 43.6541 26.648 43.167C25.4893 42.4954 24.3287 41.827 23.1699 41.156C22.9331 41.0148 22.6662 40.9024 22.499 40.6729C22.6468 40.4736 22.9111 40.4488 23.1258 40.3618C23.6094 40.208 24.0537 39.9612 24.498 39.7216C24.6103 39.6447 24.7475 39.6742 24.8552 39.743C25.846 40.3111 26.8281 40.8957 27.8222 41.4583C28.0343 41.5808 28.249 41.4182 28.4303 41.3172C32.2229 39.1737 36.0201 37.0383 39.812 34.8941C39.9525 34.8265 40.0302 34.6774 40.0188 34.5235C40.0214 30.175 40.0194 25.8258 40.0201 21.4773C40.0361 21.3027 39.9351 21.1421 39.7772 21.0707C35.9258 18.9017 32.0764 16.7294 28.2256 14.5598C28.1589 14.514 28.0799 14.4894 27.9989 14.4893C27.9179 14.4891 27.8388 14.5135 27.772 14.5592C23.9212 16.7294 20.0725 18.9037 16.2217 21.0725C16.0644 21.1441 15.9588 21.302 15.9775 21.4773C15.9782 25.8258 15.9775 30.175 15.9775 34.5242C15.9709 34.5993 15.9873 34.6746 16.0248 34.74C16.0622 34.8055 16.1188 34.8579 16.187 34.8902C17.2145 35.4729 18.2435 36.0515 19.2717 36.6322C19.851 36.944 20.5622 37.1293 21.2005 36.8904C21.7637 36.6884 22.1585 36.1136 22.1477 35.5156C22.153 31.1925 22.1451 26.8688 22.1517 22.5463C22.1376 22.3544 22.3197 22.1959 22.5063 22.2139C23 22.2106 23.4944 22.2073 23.9882 22.2152C24.1943 22.2106 24.3361 22.4172 24.3106 22.6106C24.3086 26.9611 24.3159 31.3116 24.3073 35.6621C24.3086 36.8216 23.8323 38.0832 22.7598 38.6505C21.4386 39.3349 19.8056 39.1898 18.5003 38.5335C17.3703 37.9695 16.292 37.3039 15.1821 36.6997C14.4108 36.3005 13.8775 35.4662 13.8829 34.5919V21.4097C13.8748 20.5521 14.382 19.7258 15.1339 19.3211C18.998 17.1403 22.8615 14.958 26.725 12.7762Z" fill="#8CC84B"/>
<path d="M30.096 21.9075C31.7814 21.799 33.5856 21.8432 35.1021 22.6735C36.2763 23.3097 36.9273 24.645 36.948 25.9495C36.9152 26.1254 36.7313 26.2225 36.5633 26.2104C36.0743 26.2097 35.5852 26.2171 35.0963 26.2071C34.8888 26.2151 34.7683 26.0238 34.7422 25.8404C34.6017 25.2163 34.2614 24.5981 33.6739 24.2971C32.7721 23.8455 31.7264 23.8682 30.743 23.8777C30.0251 23.9158 29.2532 23.9779 28.645 24.4001C28.178 24.7199 28.0362 25.3654 28.2029 25.8853C28.36 26.2586 28.7909 26.379 29.1435 26.4901C31.1745 27.0213 33.3267 26.9684 35.319 27.6675C36.1438 27.9525 36.9507 28.5065 37.233 29.3701C37.6023 30.5275 37.4404 31.911 36.6169 32.8402C35.9491 33.6049 34.9765 34.021 34.0064 34.2471C32.7159 34.5348 31.3766 34.5422 30.066 34.4144C28.8337 34.2739 27.5512 33.9501 26.5999 33.1105C25.7863 32.4041 25.389 31.3035 25.4285 30.2412C25.4379 30.0618 25.6165 29.9367 25.7883 29.9515C26.2808 29.9475 26.7732 29.9461 27.2656 29.9521C27.4622 29.9381 27.6081 30.108 27.6181 30.2934C27.709 30.8881 27.9325 31.5122 28.4511 31.8648C29.4518 32.5105 30.7076 32.4662 31.8535 32.4843C32.8029 32.4422 33.8686 32.4295 34.6433 31.802C35.0521 31.4441 35.1732 30.8453 35.0627 30.3302C34.943 29.8953 34.4881 29.6926 34.0974 29.5601C32.0924 28.9259 29.9161 29.156 27.9305 28.4388C27.1244 28.1539 26.3449 27.6153 26.0352 26.7871C25.6031 25.6151 25.8011 24.1653 26.7109 23.2675C27.598 22.3744 28.8785 22.0305 30.096 21.9074V21.9075Z" fill="#8CC84B"/>
</svg>
