<svg width="57" height="56" viewBox="0 0 57 56" fill="none" xmlns="http://www.w3.org/2000/svg">
<path fill-rule="evenodd" clip-rule="evenodd" d="M28.7831 35.8832C37.4222 35.8832 44.4255 32.3537 44.4255 28.0001C44.4255 23.6465 37.4222 20.1169 28.7831 20.1169C20.1442 20.1169 13.1406 23.6465 13.1406 28.0001C13.1406 32.3537 20.1442 35.8832 28.7831 35.8832Z" fill="#6E81B6"/>
<path fill-rule="evenodd" clip-rule="evenodd" d="M31.9539 30.548L32.7298 26.5769C32.9049 25.6806 32.7593 25.012 32.2972 24.5896C31.8494 24.1808 31.0894 23.982 29.9738 23.982H28.6301L29.0144 22.0145C29.0216 21.9779 29.0206 21.9401 29.0114 21.9039C29.0022 21.8678 28.9851 21.8341 28.9612 21.8053C28.9374 21.7764 28.9074 21.7532 28.8735 21.7373C28.8395 21.7214 28.8025 21.7131 28.7649 21.7131H26.9103C26.7885 21.7131 26.6839 21.7991 26.6606 21.918L25.8365 26.1339C25.7616 25.6595 25.577 25.2517 25.2815 24.9152C24.7375 24.2959 23.8771 23.982 22.7238 23.982H19.1292C19.0074 23.982 18.9028 24.068 18.8795 24.1867L17.2118 32.7204C17.1972 32.7947 17.2167 32.8711 17.2651 32.9294C17.3133 32.9879 17.3852 33.0216 17.4614 33.0216H19.3306C19.4524 33.0216 19.557 32.9356 19.5803 32.8165L19.9838 30.7525H21.3752C22.1053 30.7525 22.7189 30.6739 23.1978 30.5189C23.6875 30.3605 24.1383 30.0919 24.5355 29.7221C24.8565 29.4288 25.1217 29.1004 25.3258 28.7462L24.9927 30.4512C24.9781 30.5255 24.9976 30.6022 25.046 30.6602C25.0943 30.7187 25.1663 30.7523 25.2424 30.7523H27.097C27.2188 30.7523 27.3234 30.6664 27.3467 30.5477L28.262 25.8634H29.5346C30.0769 25.8634 30.2358 25.9708 30.2791 26.0169C30.3183 26.059 30.3996 26.2074 30.3082 26.6752L29.5705 30.451C29.5635 30.4876 29.5646 30.5253 29.5739 30.5614C29.5832 30.5975 29.6003 30.6312 29.6242 30.6599C29.648 30.6887 29.678 30.7119 29.7118 30.7278C29.7457 30.7438 29.7827 30.7521 29.8202 30.7521H31.7044C31.7633 30.7523 31.8205 30.7319 31.866 30.6947C31.9115 30.6575 31.9426 30.6056 31.9539 30.548V30.548ZM23.3554 27.2668C23.2389 27.8622 23.0195 28.2867 22.7028 28.5288C22.3813 28.7754 21.867 28.9003 21.1741 28.9003H20.3456L20.9447 25.8346H22.0158C22.8027 25.8346 23.1197 26.0018 23.247 26.142C23.4235 26.3365 23.4609 26.7256 23.3554 27.2668V27.2668ZM39.766 24.9152C39.2222 24.2959 38.3617 23.982 37.2085 23.982H33.6138C33.4918 23.982 33.3874 24.068 33.3642 24.1867L31.6966 32.7204C31.6819 32.7947 31.7013 32.8711 31.7498 32.9294C31.7982 32.9877 31.8702 33.0216 31.9459 33.0216H33.8153C33.9373 33.0216 34.0417 32.9356 34.065 32.8165L34.4684 30.7525H35.86C36.5903 30.7525 37.2034 30.6739 37.6825 30.5189C38.1724 30.3605 38.6232 30.0919 39.0202 29.7221C39.3516 29.4194 39.6241 29.0792 39.8307 28.7118C40.0373 28.3444 40.1854 27.9348 40.2718 27.4939C40.4842 26.4064 40.3142 25.5389 39.766 24.9152V24.9152ZM37.9462 27.2668C37.8295 27.8622 37.6101 28.2867 37.2938 28.5288C36.972 28.7754 36.4577 28.9003 35.7651 28.9003H34.9364L35.5353 25.8346H36.6066C37.3935 25.8346 37.7105 26.0018 37.838 26.142C38.0141 26.3365 38.0517 26.7256 37.9462 27.2668V27.2668Z" fill="white"/>
<path fill-rule="evenodd" clip-rule="evenodd" d="M21.9608 25.5815C22.6709 25.5815 23.1444 25.7119 23.381 25.9726C23.6174 26.2333 23.6738 26.681 23.5501 27.3151C23.4207 27.9755 23.1718 28.4469 22.8029 28.7294C22.4341 29.0119 21.8727 29.153 21.1191 29.153H19.9819L20.6799 25.5815H21.9608ZM17.4062 32.7685H19.2755L19.719 30.4998H21.3202C22.0267 30.4998 22.6079 30.4259 23.0642 30.2782C23.5204 30.1306 23.9352 29.8832 24.3084 29.5358C24.6216 29.2497 24.8751 28.9337 25.0692 28.5883C25.2631 28.243 25.4008 27.8621 25.4823 27.4454C25.6801 26.4338 25.5309 25.6459 25.0349 25.0816C24.5392 24.5171 23.7502 24.2349 22.6688 24.2349H19.0742L17.4062 32.7685V32.7685ZM26.8552 21.9661H28.7098L28.2664 24.2349H29.9189C30.9581 24.2349 31.6755 24.4151 32.0701 24.7757C32.4646 25.1363 32.5829 25.7207 32.4251 26.5286L31.6492 30.4998H29.7651L30.5028 26.7239C30.5866 26.2943 30.5559 26.0014 30.4101 25.8451C30.2642 25.689 29.9538 25.6107 29.4794 25.6107H27.9973L27.0418 30.4998H25.1872L26.8552 21.9661ZM36.5517 25.5815C37.2617 25.5815 37.735 25.7119 37.9718 25.9726C38.2083 26.2333 38.2644 26.681 38.1407 27.3151C38.0117 27.9755 37.7628 28.4469 37.3938 28.7294C37.0251 29.0119 36.4635 29.153 35.7103 29.153H34.5731L35.2709 25.5815H36.5517V25.5815ZM31.9967 32.7685H33.8661L34.3094 30.4998H35.9106C36.6173 30.4998 37.1986 30.4259 37.6548 30.2782C38.111 30.1306 38.5258 29.8832 38.899 29.5358C39.2123 29.2497 39.4657 28.9337 39.6596 28.5883C39.8535 28.243 39.9914 27.8621 40.0731 27.4454C40.2708 26.4338 40.1215 25.6459 39.6258 25.0816C39.1296 24.5171 38.3408 24.2349 37.2595 24.2349H33.6648L31.9967 32.7685V32.7685Z" fill="black"/>
</svg>
