<svg width="57" height="56" viewBox="0 0 57 56" fill="none" xmlns="http://www.w3.org/2000/svg">
<path d="M28.3579 12.5254C20.4158 12.5254 20.9117 15.9504 20.9117 15.9504L20.9205 19.4988H28.4995V20.5642H17.9103C17.9103 20.5642 12.8281 19.991 12.8281 27.96C12.8281 35.9292 17.2639 35.6465 17.2639 35.6465H19.9112V31.9485C19.9112 31.9485 19.7685 27.5374 24.2762 27.5374H31.7932C31.7932 27.5374 36.0165 27.6052 36.0165 23.4784V16.6549C36.0165 16.6549 36.6579 12.5254 28.3579 12.5254ZM24.1788 14.9116C24.3579 14.9115 24.5353 14.9464 24.7008 15.0145C24.8663 15.0826 25.0167 15.1825 25.1433 15.3084C25.2699 15.4343 25.3704 15.5839 25.4388 15.7484C25.5073 15.913 25.5424 16.0894 25.5423 16.2675C25.5424 16.4456 25.5073 16.622 25.4388 16.7866C25.3704 16.9511 25.2699 17.1007 25.1433 17.2266C25.0167 17.3526 24.8663 17.4524 24.7008 17.5205C24.5353 17.5886 24.3579 17.6235 24.1788 17.6234C23.9997 17.6235 23.8224 17.5886 23.6569 17.5205C23.4914 17.4524 23.341 17.3526 23.2144 17.2266C23.0877 17.1007 22.9873 16.9511 22.9188 16.7866C22.8504 16.622 22.8152 16.4456 22.8154 16.2675C22.8152 16.0894 22.8504 15.913 22.9188 15.7484C22.9873 15.5839 23.0877 15.4343 23.2144 15.3084C23.341 15.1825 23.4914 15.0826 23.6569 15.0145C23.8224 14.9464 23.9997 14.9115 24.1788 14.9116V14.9116Z" fill="url(#paint0_linear_1555_11951)"/>
<path d="M28.5843 43.4747C36.5264 43.4747 36.0305 40.0497 36.0305 40.0497L36.0216 36.5014H28.4425V35.4361H39.0318C39.0318 35.4361 44.1139 36.0092 44.1139 28.04C44.1139 20.0709 39.6781 20.3535 39.6781 20.3535H37.0308V24.0514C37.0308 24.0514 37.1735 28.4626 32.6658 28.4626H25.1488C25.1488 28.4626 20.9256 28.3948 20.9256 32.5217V39.3453C20.9256 39.3453 20.2843 43.4747 28.5842 43.4747H28.5843ZM32.7633 41.0887C32.5842 41.0889 32.4069 41.0539 32.2414 40.9858C32.0759 40.9178 31.9255 40.8179 31.7989 40.692C31.6722 40.566 31.5718 40.4165 31.5033 40.2519C31.4349 40.0873 31.3997 39.9109 31.3999 39.7328C31.3997 39.5547 31.4348 39.3783 31.5033 39.2137C31.5718 39.0492 31.6722 38.8996 31.7988 38.7737C31.9255 38.6477 32.0758 38.5478 32.2413 38.4797C32.4068 38.4117 32.5842 38.3767 32.7633 38.3768C32.9424 38.3767 33.1198 38.4116 33.2853 38.4797C33.4508 38.5478 33.6011 38.6477 33.7278 38.7736C33.8544 38.8996 33.9549 39.0491 34.0233 39.2137C34.0918 39.3782 34.1269 39.5546 34.1268 39.7327C34.1269 39.9108 34.0918 40.0872 34.0233 40.2518C33.9549 40.4164 33.8544 40.5659 33.7278 40.6918C33.6011 40.8178 33.4508 40.9176 33.2853 40.9857C33.1198 41.0538 32.9424 41.0888 32.7633 41.0886V41.0887Z" fill="url(#paint1_linear_1555_11951)"/>
<defs>
<linearGradient id="paint0_linear_1555_11951" x1="15.8346" y1="15.3091" x2="31.2529" y2="30.6589" gradientUnits="userSpaceOnUse">
<stop stop-color="#387EB8"/>
<stop offset="1" stop-color="#366994"/>
</linearGradient>
<linearGradient id="paint1_linear_1555_11951" x1="25.3517" y1="25.1107" x2="41.9135" y2="40.8545" gradientUnits="userSpaceOnUse">
<stop stop-color="#FFE052"/>
<stop offset="1" stop-color="#FFC331"/>
</linearGradient>
</defs>
</svg>
