<svg width="57" height="56" viewBox="0 0 57 56" fill="none" xmlns="http://www.w3.org/2000/svg">
<path d="M28.4691 30.743C29.9924 30.743 31.2272 29.515 31.2272 28.0002C31.2272 26.4853 29.9924 25.2573 28.4691 25.2573C26.9458 25.2573 25.7109 26.4853 25.7109 28.0002C25.7109 29.515 26.9458 30.743 28.4691 30.743Z" fill="#61DAFB"/>
<path fill-rule="evenodd" clip-rule="evenodd" d="M15.499 26.5569C14.8736 27.1184 14.668 27.6079 14.668 28.0001C14.668 28.3922 14.8736 28.8818 15.499 29.4433C16.1241 30.0044 17.085 30.5555 18.3577 31.0387C20.8961 32.0026 24.4703 32.6195 28.4678 32.6195C32.4653 32.6195 36.0395 32.0026 38.5779 31.0387C39.8506 30.5555 40.8115 30.0044 41.4366 29.4433C42.0621 28.8818 42.2676 28.3922 42.2676 28.0001C42.2676 27.6079 42.0621 27.1184 41.4366 26.5569C40.8115 25.9958 39.8506 25.4446 38.5779 24.9614C36.0395 23.9976 32.4653 23.3806 28.4678 23.3806C24.4703 23.3806 20.8961 23.9976 18.3577 24.9614C17.085 25.4446 16.1241 25.9958 15.499 26.5569ZM17.6478 23.0916C20.4658 22.0216 24.2916 21.3806 28.4678 21.3806C32.644 21.3806 36.4698 22.0216 39.2878 23.0916C40.6934 23.6253 41.8998 24.2851 42.7726 25.0686C43.645 25.8517 44.2676 26.8404 44.2676 28.0001C44.2676 29.1597 43.645 30.1484 42.7726 30.9316C41.8998 31.715 40.6934 32.3748 39.2878 32.9085C36.4698 33.9785 32.644 34.6195 28.4678 34.6195C24.2916 34.6195 20.4658 33.9785 17.6478 32.9085C16.2423 32.3748 15.0358 31.715 14.163 30.9316C13.2906 30.1484 12.668 29.1597 12.668 28.0001C12.668 26.8404 13.2906 25.8517 14.163 25.0686C15.0358 24.2851 16.2423 23.6253 17.6478 23.0916Z" fill="#61DAFB"/>
<path fill-rule="evenodd" clip-rule="evenodd" d="M23.2496 16.1117C22.4489 15.8541 21.9171 15.9205 21.5713 16.1191C21.2255 16.3176 20.9018 16.7424 20.7257 17.5608C20.5497 18.3792 20.5502 19.4816 20.7656 20.8184C21.1952 23.485 22.4444 26.8702 24.4426 30.3119C26.4407 33.7535 28.7642 36.522 30.8716 38.2253C31.9281 39.0792 32.8879 39.6308 33.6886 39.8884C34.4893 40.146 35.0212 40.0796 35.367 39.8811C35.7127 39.6826 36.0365 39.2577 36.2125 38.4393C36.3886 37.6209 36.388 36.5186 36.1727 35.1817C35.7431 32.5152 34.4938 29.1299 32.4957 25.6883C30.4975 22.2466 28.1741 19.4781 26.0667 17.7749C25.0101 16.9209 24.0504 16.3693 23.2496 16.1117ZM27.3274 16.2264C29.6694 18.1193 32.1414 21.0948 34.2301 24.6924C36.3189 28.2901 37.6741 31.9067 38.1515 34.8702C38.3897 36.3483 38.4183 37.718 38.1723 38.8618C37.9263 40.0057 37.3768 41.0333 36.3711 41.6107C35.3655 42.1881 34.1959 42.1475 33.0767 41.7875C31.9576 41.4274 30.7791 40.7179 29.6109 39.7737C27.2688 37.8808 24.7968 34.9054 22.7081 31.3077C20.6194 27.71 19.2642 24.0934 18.7868 21.1299C18.5486 19.6518 18.52 18.2821 18.766 17.1383C19.012 15.9944 19.5615 14.9668 20.5671 14.3894C21.5727 13.8121 22.7424 13.8526 23.8616 14.2127C24.9807 14.5727 26.1592 15.2822 27.3274 16.2264Z" fill="#61DAFB"/>
<path fill-rule="evenodd" clip-rule="evenodd" d="M36.2093 17.5608C36.0333 16.7424 35.7095 16.3175 35.3637 16.119C35.018 15.9205 34.4861 15.8541 33.6854 16.1117C32.8846 16.3693 31.9249 16.9209 30.8684 17.7748C28.761 19.4781 26.4375 22.2466 24.4393 25.6882C22.4412 29.1299 21.192 32.5151 20.7624 35.1817C20.547 36.5185 20.5465 37.6209 20.7225 38.4393C20.8985 39.2577 21.2223 39.6825 21.5681 39.881C21.9138 40.0796 22.4457 40.146 23.2464 39.8884C24.0472 39.6308 25.0069 39.0792 26.0634 38.2252C28.1708 36.522 30.4943 33.7535 32.4924 30.3118C34.4906 26.8702 35.7398 23.4849 36.1694 20.8184C36.3848 19.4815 36.3853 18.3792 36.2093 17.5608ZM38.1483 21.1299C37.6708 24.0934 36.3156 27.71 34.2269 31.3077C32.1382 34.9053 29.6662 37.8808 27.3241 39.7737C26.156 40.7179 24.9775 41.4274 23.8583 41.7874C22.7392 42.1475 21.5695 42.188 20.5639 41.6107C19.5583 41.0333 19.0088 40.0057 18.7627 38.8618C18.5167 37.718 18.5454 36.3483 18.7835 34.8701C19.261 31.9067 20.6162 28.2901 22.7049 24.6924C24.7936 21.0947 27.2656 18.1193 29.6076 16.2264C30.7758 15.2822 31.9543 14.5727 33.0734 14.2126C34.1926 13.8526 35.3623 13.812 36.3679 14.3894C37.3735 14.9668 37.923 15.9944 38.1691 17.1382C38.4151 18.2821 38.3864 19.6518 38.1483 21.1299Z" fill="#61DAFB"/>
</svg>
