<svg width="56" height="56" viewBox="0 0 56 56" fill="none" xmlns="http://www.w3.org/2000/svg">
<path d="M41.1019 36.4764C39.4092 36.4336 38.0973 36.6054 36.997 37.0779C36.6795 37.2067 36.1716 37.2068 36.1293 37.6149C36.2986 37.7868 36.3198 38.066 36.4679 38.3022C36.7221 38.7317 37.1661 39.3117 37.5682 39.6125C38.0125 39.9561 38.457 40.2997 38.9223 40.6004C39.7476 41.1159 40.6788 41.4166 41.4828 41.9321C41.9485 42.2326 42.4137 42.6195 42.8792 42.9416C43.112 43.1132 43.26 43.3927 43.5564 43.5V43.4356C43.4082 43.2422 43.3658 42.9631 43.2178 42.7482C43.0065 42.5334 42.7946 42.3401 42.583 42.1253C41.9694 41.2878 41.2077 40.5574 40.3825 39.9561C39.7054 39.4835 38.2241 38.8392 37.9491 38.0444C37.9491 38.0444 37.9278 38.0231 37.9068 38.0016C38.3722 37.9586 38.9223 37.7868 39.3669 37.6579C40.0862 37.4644 40.7421 37.5075 41.4828 37.3142C41.8213 37.2283 42.1599 37.1209 42.4983 37.0135V36.8202C42.1177 36.4336 41.8426 35.9182 41.4405 35.553C40.3613 34.6077 39.1763 33.6843 37.9491 32.9111C37.2931 32.4815 36.4466 32.2022 35.7484 31.8372C35.4947 31.7082 35.0714 31.6438 34.9233 31.429C34.5423 30.9566 34.3307 30.3337 34.0557 29.7752C33.4423 28.5938 32.8496 27.2837 32.3206 26.038C31.9399 25.2003 31.7071 24.3625 31.2415 23.5895C29.0621 19.9381 26.6922 17.7258 23.0529 15.5563C22.2699 15.1054 21.3389 14.912 20.3444 14.6759C19.8156 14.6543 19.2864 14.6114 18.7575 14.5898C18.4189 14.4394 18.0803 14.0314 17.784 13.8381C16.5782 13.0648 13.4675 11.3896 12.5788 13.6019C12.0074 14.9979 13.4253 16.3725 13.9118 17.0815C14.2718 17.5754 14.7371 18.1338 14.991 18.6923C15.1392 19.0572 15.1814 19.4441 15.3295 19.8307C15.6682 20.7755 15.9854 21.8282 16.4299 22.7089C16.6627 23.1598 16.9165 23.6323 17.2128 24.0404C17.3821 24.2766 17.6782 24.3841 17.7418 24.7707C17.4457 25.2003 17.4244 25.8447 17.255 26.3816C16.4933 28.8087 16.7897 31.8157 17.8687 33.5984C18.2071 34.1351 19.0113 35.3168 20.0904 34.8656C21.0427 34.4791 20.8311 33.2548 21.106 32.1809C21.1697 31.9228 21.1274 31.7512 21.2542 31.5794V31.6225C21.5505 32.2237 21.8466 32.8038 22.1217 33.4051C22.7777 34.4575 23.9202 35.553 24.8724 36.2833C25.3804 36.6698 25.7824 37.3357 26.4172 37.572V37.5074H26.3748C26.2478 37.3141 26.0574 37.2283 25.8882 37.0778C25.5074 36.6914 25.084 36.2188 24.7879 35.7892C23.8993 34.5862 23.1162 33.2547 22.418 31.88C22.0795 31.2143 21.7831 30.484 21.5082 29.8182C21.3811 29.5602 21.3811 29.1738 21.1696 29.045C20.8521 29.5175 20.3867 29.9256 20.1539 30.5055C19.7521 31.429 19.7096 32.5674 19.5615 33.7486C19.4769 33.7703 19.5191 33.7486 19.4767 33.7918C18.7998 33.6197 18.567 32.9111 18.313 32.3096C17.6781 30.7847 17.5723 28.3361 18.1226 26.5749C18.2708 26.1238 18.9056 24.7064 18.6517 24.2767C18.5247 23.8686 18.1013 23.6323 17.8687 23.3102C17.5937 22.9021 17.2973 22.3868 17.107 21.9356C16.5991 20.7327 16.3451 19.401 15.7951 18.1982C15.5411 17.6397 15.097 17.06 14.7371 16.5445C14.3351 15.9646 13.8907 15.5563 13.5733 14.8691C13.4676 14.6329 13.3194 14.2462 13.4886 13.9885C13.531 13.8166 13.6155 13.7523 13.7849 13.7093C14.06 13.4729 14.843 13.7737 15.1179 13.9025C15.9009 14.2245 16.5568 14.5255 17.2128 14.9765C17.5089 15.1913 17.8264 15.5994 18.2071 15.7068H18.6515C19.3287 15.8571 20.0903 15.7498 20.7252 15.943C21.8467 16.308 22.8623 16.8451 23.7722 17.425C26.5442 19.2077 28.8292 21.7422 30.374 24.7707C30.628 25.2645 30.7337 25.7158 30.9664 26.2311C31.411 27.2837 31.961 28.3576 32.4052 29.3886C32.8496 30.3979 33.2727 31.429 33.9076 32.2668C34.225 32.7176 35.4945 32.954 36.0658 33.1903C36.4891 33.3835 37.1451 33.5555 37.5259 33.7917C38.2453 34.2425 38.9647 34.7583 39.6418 35.2521C39.9804 35.5099 41.0383 36.0469 41.1019 36.4764V36.4764Z" fill="#14B8A6"/>
<path d="M19.5197 17.8115C19.1601 17.8115 18.9063 17.8547 18.6523 17.9191V17.962H18.6947C18.8641 18.3057 19.1601 18.542 19.3716 18.8426C19.541 19.1862 19.689 19.53 19.8584 19.8737C19.8795 19.8521 19.9007 19.8307 19.9007 19.8307C20.197 19.6158 20.345 19.2722 20.345 18.7567C20.2181 18.6064 20.1969 18.4561 20.0911 18.3057C19.9643 18.0908 19.689 17.9835 19.5197 17.8115V17.8115Z" fill="#14B8A6"/>
</svg>
