<svg width="56" height="56" viewBox="0 0 56 56" fill="none" xmlns="http://www.w3.org/2000/svg">
<path d="M14.6563 27.9996C14.6563 33.2819 17.7259 37.8463 22.1771 40.0097L15.8116 22.5687C15.0485 24.2775 14.6548 26.1281 14.6563 27.9996V27.9996ZM37.0094 27.3262C37.0094 25.6769 36.417 24.5348 35.9089 23.6458C35.2324 22.5466 34.5987 21.6157 34.5987 20.5165C34.5987 19.2898 35.5288 18.1479 36.8393 18.1479C36.8984 18.1479 36.9545 18.1553 37.0124 18.1586C34.638 15.9835 31.4749 14.6555 28.0008 14.6555C23.3388 14.6555 19.2372 17.0474 16.8511 20.6704C17.1642 20.6798 17.4595 20.6861 17.7099 20.6861C19.1057 20.6861 21.2663 20.5168 21.2663 20.5168C21.9857 20.4744 22.0705 21.5309 21.3521 21.616C21.3521 21.616 20.629 21.7011 19.8246 21.7432L24.6841 36.1976L27.6047 27.4391L25.5253 21.7429C24.8067 21.7008 24.126 21.6157 24.126 21.6157C23.4069 21.5736 23.4912 20.4741 24.2103 20.5165C24.2103 20.5165 26.414 20.6859 27.7253 20.6859C29.1208 20.6859 31.2817 20.5165 31.2817 20.5165C32.0016 20.4741 32.0861 21.5307 31.3673 21.6157C31.3673 21.6157 30.6428 21.7008 29.8399 21.7429L34.6624 36.0879L35.9932 31.64C36.5704 29.7943 37.0094 28.4685 37.0094 27.3262V27.3262Z" fill="#00749A"/>
<path d="M28.2343 29.1668L24.2305 40.8009C25.4545 41.1616 26.7241 41.3448 28.0002 41.3448C29.5542 41.3448 31.0444 41.0759 32.4316 40.5884C32.3944 40.5301 32.3626 40.4686 32.3366 40.4045L28.2343 29.1668ZM39.7095 21.5972C39.7669 22.0222 39.7994 22.4788 39.7994 22.9694C39.7994 24.3235 39.5465 25.8458 38.7847 27.7491L34.7085 39.5344C38.6758 37.2209 41.3442 32.9228 41.3442 27.9995C41.3478 25.7617 40.7854 23.5593 39.7095 21.5972V21.5972Z" fill="#00749A"/>
<path d="M28.001 12.4443C19.4238 12.4443 12.4453 19.4223 12.4453 27.9995C12.4453 36.5777 19.4236 43.5557 28.001 43.5557C36.578 43.5557 43.5575 36.578 43.5575 27.9995C43.5572 19.4223 36.578 12.4443 28.001 12.4443ZM28.001 42.8424C19.8171 42.8424 13.1586 36.1839 13.1586 27.9995C13.1586 19.8159 19.8169 13.1579 28.001 13.1579C36.1846 13.1579 42.8427 19.8159 42.8427 27.9995C42.8427 36.1839 36.1844 42.8424 28.001 42.8424Z" fill="#00749A"/>
</svg>
